<svg width="24" height="18" viewBox="0 0 24 18" fill="none" xmlns="http://www.w3.org/2000/svg">
<path fill-rule="evenodd" clip-rule="evenodd" d="M0 1.94106C0 1.16137 0.632069 0.529297 1.41176 0.529297H22.5882C23.3679 0.529297 24 1.16137 24 1.94106C24 2.72076 23.3679 3.35283 22.5882 3.35283H1.41176C0.632069 3.35283 0 2.72076 0 1.94106Z" fill="#6C6C9E"/>
<path fill-rule="evenodd" clip-rule="evenodd" d="M0 8.99989C0 8.22019 0.632069 7.58812 1.41176 7.58812H22.5882C23.3679 7.58812 24 8.22019 24 8.99989C24 9.77958 23.3679 10.4116 22.5882 10.4116H1.41176C0.632069 10.4116 0 9.77958 0 8.99989Z" fill="#6C6C9E"/>
<path fill-rule="evenodd" clip-rule="evenodd" d="M0 16.0587C0 15.279 0.632069 14.6469 1.41176 14.6469H22.5882C23.3679 14.6469 24 15.279 24 16.0587C24 16.8384 23.3679 17.4705 22.5882 17.4705H1.41176C0.632069 17.4705 0 16.8384 0 16.0587Z" fill="#6C6C9E"/>
</svg>
